<?xml version="1.0" encoding="UTF-8"?>
<svg id="Layer_1" data-name="Layer 1" xmlns="http://www.w3.org/2000/svg" viewBox="0 0 319.34 186.42">
  <path d="M76.19,186.15c-4.49,.05-7.62-1.67-10.31-4.35-20.49-20.42-41.02-40.79-61.43-61.28-6.03-6.05-5.9-13.28,.17-19.34C36.97,68.88,69.35,36.61,101.76,4.38c5.91-5.88,13.02-5.82,18.94,.06,20.63,20.5,41.24,41.04,61.81,61.6,5.74,5.73,6.12,12.62,.57,18.55-6.81,7.28-14.03,14.17-21.09,21.21-.89,.89-1.83,2.32-3.29,.93-2.65-2.52-5.28-5.07-7.75-7.76-1.79-1.95,.39-2.94,1.42-3.99,5.72-5.8,11.41-11.63,17.32-17.23,2.29-2.17,2.04-3.46-.08-5.56-18.68-18.47-37.27-37.01-55.81-55.61-1.98-1.99-3.18-2.03-5.19-.02-30.67,30.68-61.4,61.31-92.19,91.87-1.96,1.94-1.59,2.99,.15,4.72,18.77,18.61,37.52,37.24,56.14,55.99,2.38,2.39,3.59,1.73,5.53-.28,5.9-6.08,12.07-11.91,17.93-18.03,2.14-2.24,3.41-2.08,5.56,.03,7.6,7.43,7.69,7.35,.34,14.67-5.3,5.28-10.59,10.57-15.9,15.83-2.92,2.89-6.18,5.07-9.98,4.78Z" fill="#fff"/>
  <path d="M319.33,110.74c.15,3.94-1.59,7.1-4.25,9.77-20.58,20.55-41.13,41.14-61.85,61.56-6,5.91-13.13,5.71-19.07-.08-6.67-6.5-13.11-13.23-19.85-19.64-2.48-2.35-2.08-3.72,.15-5.95,7.4-7.37,7.31-7.46,14.53-.26,4.36,4.34,8.81,8.59,13.03,13.06,1.99,2.1,3.29,2.49,5.57,.19,18.51-18.63,37.13-37.16,55.8-55.63,1.97-1.95,2.1-3.11,.05-5.15-30.79-30.56-61.53-61.18-92.18-91.89-2.32-2.32-3.35-1.29-5.06,.42-9.72,9.79-19.59,19.43-29.24,29.29-2.37,2.42-3.8,2.68-6.33,.12-7.1-7.19-7.22-7.07,.08-14.35,9.18-9.15,18.34-18.33,27.56-27.45,6.38-6.31,13.31-6.31,19.65,0,32.28,32.13,64.52,64.3,96.82,96.41,2.73,2.71,4.47,5.72,4.58,9.58Z" fill="#fff"/>
  <path d="M187.33,146.23c-.06,1.98-1.11,4.86-3.47,7.21-9.18,9.15-18.28,18.38-27.57,27.42-5.34,5.2-12.41,5.52-17.91,.18-15.85-15.4-31.51-31-46.96-46.79-5.8-5.92-5.2-13.01,.73-18.97,8.44-8.48,16.91-16.93,25.42-25.33,6.47-6.39,13.58-6.32,20.12,.14,6.15,6.07,12.14,12.3,18.42,18.24,2.62,2.48,2.98,4.13,.14,6.77-7.88,7.32-5.41,7.05-12.72,0-4.19-4.04-8.35-8.11-12.33-12.34-1.98-2.1-3.28-2.57-5.55-.19-6.78,7.07-13.75,13.98-20.82,20.76-2.14,2.05-1.8,3.15,.13,5.05,13.02,12.82,25.97,25.72,38.84,38.7,1.98,2,3.21,2.07,5.19,.03,6.72-6.91,13.51-13.75,20.49-20.4,2.5-2.39,2.02-3.84-.18-6.02-5.03-4.96-4.93-5.05-.1-9.87q4.7-4.68,9.23-.16c1.76,1.76,3.58,3.48,5.27,5.3,2.33,2.52,3.75,5.45,3.64,10.27Z" fill="#fff"/>
  <path d="M136.38,144.35c-.46-3.9,1.8-7.03,4.52-9.77,14.89-14.95,29.79-29.9,44.85-44.67,6.68-6.56,13.51-6.29,20.09,.24,8.49,8.43,16.97,16.86,25.42,25.34,6.17,6.2,6.33,13.07,.23,19.2-15.24,15.31-30.53,30.57-45.9,45.74-6.02,5.94-13.85,5.72-19.41-.23-.66-.71-1.6-1.29-1.45-2.45,.26-2.06,9.64-9.66,11.72-9.15,1.81,.45,2.44-.7,3.3-1.55,12.97-12.88,25.88-25.82,38.89-38.66,1.96-1.93,2.14-3.28,.07-5.28-7.04-6.82-13.97-13.75-20.83-20.76-1.78-1.82-2.93-1.98-4.82-.08-12.87,12.97-25.79,25.9-38.85,38.69-2.68,2.63-1.43,4.05,.57,6,5.01,4.89,5.35,3.97-.12,9.43q-6.19,6.18-12.52-.14c-4.78-4.77-5.78-6.8-5.76-11.91Z" fill="#fff"/>
</svg>